<svg width="24" height="24" viewBox="0 0 24 24" fill="none" xmlns="http://www.w3.org/2000/svg">
<path fill-rule="evenodd" clip-rule="evenodd" d="M2.79701 4.80744C5.11153 2.39758 8.90678 2.39758 11.2213 4.80744L11.2221 4.80831L11.987 5.60707L12.7526 4.80744C15.0671 2.39758 18.8624 2.39758 21.1769 4.80744L21.1788 4.80939C23.524 7.26779 23.1316 10.953 21.236 13.4385L21.2348 13.4401C19.3265 15.9293 17.1217 17.936 15.4017 19.317C14.54 20.0089 13.7958 20.5471 13.265 20.9135C12.9996 21.0968 12.7872 21.2373 12.64 21.3328C12.5663 21.3806 12.5089 21.4171 12.4693 21.442L12.4233 21.4708L12.4106 21.4787L12.4069 21.481L12.4057 21.4817C12.4057 21.4817 12.405 21.4821 11.987 20.8C11.581 21.4894 11.5807 21.4892 11.5807 21.4892L11.579 21.4882L11.5751 21.4859L11.5619 21.478L11.5139 21.4491C11.4726 21.4241 11.413 21.3875 11.3366 21.3397C11.1837 21.244 10.9638 21.1033 10.6899 20.9197C10.1424 20.5528 9.3778 20.0137 8.50174 19.3206C6.75418 17.9379 4.54103 15.9247 2.72643 13.4231L2.72542 13.4217C0.929765 10.935 0.437904 7.26372 2.79701 4.80744ZM11.987 20.8L11.5807 21.4892C11.8356 21.6393 12.1535 21.6362 12.4057 21.4817L11.987 20.8ZM11.9792 19.8525C12.0863 19.7811 12.2127 19.6958 12.356 19.5969C12.8599 19.2489 13.5726 18.7337 14.3999 18.0694C16.0578 16.7382 18.1591 14.8219 19.9643 12.4675C21.5246 10.4211 21.675 7.64877 20.0221 5.91482C18.3372 4.16158 15.5915 4.16179 13.9069 5.91544L12.5648 7.31708C12.4139 7.47468 12.2052 7.5638 11.987 7.5638C11.7688 7.5638 11.56 7.47468 11.4091 7.31708L10.0673 5.91575C8.38244 4.16172 5.63577 4.16156 3.95098 5.91575C2.31087 7.62342 2.50441 10.3821 4.0221 12.4844C5.72115 14.8264 7.81421 16.7363 9.49453 18.0658C10.3325 18.7288 11.0623 19.2432 11.5807 19.5906C11.7327 19.6925 11.8664 19.7799 11.9792 19.8525Z" fill="#212124"/>
</svg>
